<svg xmlns="http://www.w3.org/2000/svg" width="50" height="50" viewBox="0 0 50 50">
<g>
<path d="M 26.00 31.13 L 26.00 50.00 L 0.00 50.00 L 0.00 0.00 L 50.00 0.00 L 50.00 50.00 L 34.92 50.00 L 35.21 40.75 C35.49,31.97 35.61,31.50 37.70,31.50 C40.35,31.50 41.76,30.20 42.03,27.50 C42.43,23.52 42.01,23.00 38.44,23.00 C34.94,23.00 34.88,22.94 35.19,19.25 C35.46,15.99 35.84,15.49 38.10,15.40 C41.87,15.26 43.00,14.25 43.00,11.01 C43.00,9.03 42.39,7.94 41.04,7.51 C38.15,6.60 32.46,7.92 30.18,10.05 C27.76,12.30 25.61,18.41 26.31,21.07 C26.74,22.70 26.28,23.00 23.35,23.00 C19.95,23.00 19.89,23.08 20.19,26.75 C20.46,30.01 20.86,30.54 23.25,30.82 Z" fill="rgb(56,86,156)"/>
<path d="M 26.00 40.57 L 26.00 31.13 L 23.25 30.82 C20.86,30.54 20.46,30.01 20.19,26.75 C19.89,23.08 19.95,23.00 23.35,23.00 C26.28,23.00 26.74,22.70 26.31,21.07 C25.61,18.41 27.76,12.30 30.18,10.05 C32.46,7.92 38.15,6.60 41.04,7.51 C42.39,7.94 43.00,9.03 43.00,11.01 C43.00,14.25 41.87,15.26 38.10,15.40 C35.84,15.49 35.46,15.99 35.19,19.25 C34.88,22.94 34.94,23.00 38.44,23.00 C42.01,23.00 42.43,23.52 42.03,27.50 C41.76,30.20 40.35,31.50 37.70,31.50 C35.61,31.50 35.49,31.97 35.21,40.75 L 34.92 50.00 L 30.46 50.00 L 26.00 50.00 L 26.00 40.57 Z" fill="rgb(245,250,250)"/>
</g>
</svg>