<?xml version="1.0" standalone="no"?>
<!DOCTYPE svg PUBLIC "-//W3C//DTD SVG 20010904//EN"
 "http://www.w3.org/TR/2001/REC-SVG-20010904/DTD/svg10.dtd">
<svg version="1.0" xmlns="http://www.w3.org/2000/svg"
 width="50.000000pt" height="50.000000pt" viewBox="0 0 50.000000 50.000000"
 preserveAspectRatio="xMidYMid meet">

<g transform="translate(0.000000,50.000000) scale(0.100000,-0.100000)"
fill="#000000" stroke="none">
<path d="M0 250 l0 -250 250 0 250 0 0 250 0 250 -250 0 -250 0 0 -250z m202
136 c11 -12 27 -33 36 -48 9 -16 20 -28 24 -28 4 0 24 20 45 45 24 29 45 45
60 45 13 0 23 -3 23 -6 0 -3 -22 -33 -50 -66 l-50 -60 60 -77 c33 -43 60 -81
60 -84 0 -4 -22 -7 -48 -7 -46 0 -51 3 -89 50 l-41 51 -44 -51 c-28 -32 -51
-50 -65 -50 -13 0 -23 3 -23 6 0 3 22 31 50 63 28 32 50 62 50 68 0 6 -25 43
-55 82 -30 39 -55 76 -55 81 0 6 21 9 46 8 32 -1 52 -8 66 -22z"/>
<path d="M150 371 c0 -16 171 -236 186 -239 8 -2 14 -1 14 3 0 11 -183 245
-192 245 -4 0 -8 -4 -8 -9z"/>
</g>
</svg>
